<?xml version="1.0" encoding="utf-8"?>
<!-- Generator: Adobe Illustrator 26.0.3, SVG Export Plug-In . SVG Version: 6.00 Build 0)  -->
<svg version="1.1" id="Слой_1" xmlns="http://www.w3.org/2000/svg" xmlns:xlink="http://www.w3.org/1999/xlink" x="0px" y="0px"
	 viewBox="0 0 1920 1080" style="enable-background:new 0 0 1920 1080;" xml:space="preserve">
<style type="text/css">
	.st0{fill:#FFFFFF;}
</style>
<g>
	<g>
		<path class="st0" d="M1730,524c0,26.666687,0,53.333313,0,80c-513.333252,0-1026.666626,0-1540,0
			C190,601.666687,190,599.333313,190,597c2.178207,3.885498,5.457123,5.295044,9.923904,5.315369
			c46.133423,0.209717,92.265854,0.653381,138.399338,0.82666c21.320312,0.080078,41.643646-4.447144,60.533142-14.6203
			c26.395477-14.215637,53.000519-28.063599,79.075653-42.845459c19.815216-11.233154,40.582367-16.63623,63.389069-16.55603
			c92.15033,0.323853,184.302429,0.134644,276.453857,0.13324c3.997864-0.000061,8.011292,0.205566,11.990112-0.074219
			c6.717407-0.472351,12.038025-3.35553,15.423828-9.496033c4.50238-8.165192,9.622253-16.018433,13.680298-24.391693
			c3.742432-7.721924,9.401123-10.167908,17.622437-10.139679c56.823242,0.195068,113.647522,0.102631,170.471497,0.102722
			c34.827515,0.000061,69.655273,0.053589,104.482666-0.044861c6.849243-0.019348,11.645386,2.450775,14.897827,8.727142
			c4.517212,8.716583,9.700684,17.085083,14.435425,25.692474c3.37915,6.142639,8.675537,9.067017,15.393555,9.544495
			c4.144165,0.294556,8.325195,0.079529,12.489746,0.07959c169.971802,0.001282,339.943726-0.009644,509.915649,0.055542
			C1723.390747,529.310791,1727.553345,528.70929,1730,524z"/>
		<path class="st0" d="M190,582c0-35.666687,0-71.333344,0-107c513.333313,0,1026.666626,0,1540,0c0,14.333344,0,28.666656,0,43
			c-2.451538-4.700806-6.608887-5.311401-11.424194-5.30957c-171.162354,0.065796-342.324707,0.027771-513.487061,0.143005
			c-7.791626,0.005249-13.421997-2.967255-17.804565-9.06073c-4.766479-6.627289-9.645996-13.174774-14.330322-19.859436
			c-4.21875-6.020386-9.998779-8.302094-17.178345-8.274536c-29.665405,0.113953-59.331177,0.106964-88.996826,0.10199
			c-65.664734-0.011017-131.329407-0.031799-196.994141-0.096863c-6.996338-0.006958-12.598145,2.386047-16.7005,8.222748
			c-4.78949,6.814423-9.694031,13.549835-14.642639,20.250122c-3.828491,5.183624-8.617737,8.655243-15.470032,8.648529
			c-93.996521-0.092773-187.993225-0.053223-281.989258-0.291138c-16.768982-0.042419-33.026581,2.489197-48.172974,9.296082
			c-24.914124,11.196594-49.698273,22.777466-73.942688,35.343384c-26.634827,13.804871-54.129883,20.82196-84.450806,19.959412
			c-44.629425-1.269592-89.321854-0.286743-133.987167-0.387939C195.834991,576.674683,192.268646,577.852051,190,582z"/>
		<path d="M190,582c2.268646-4.147949,5.834991-5.325317,10.428482-5.314941
			c44.665314,0.101196,89.357742-0.881653,133.987167,0.387939c30.320923,0.862549,57.815979-6.154541,84.450806-19.959412
			c24.244415-12.565918,49.028564-24.14679,73.942688-35.343384c15.146393-6.806885,31.403992-9.338501,48.172974-9.296082
			c93.996033,0.237915,187.992737,0.198364,281.989258,0.291138c6.852295,0.006714,11.641541-3.464905,15.470032-8.648529
			c4.948608-6.700287,9.853149-13.435699,14.642639-20.250122c4.102356-5.8367,9.704163-8.229706,16.7005-8.222748
			c65.664734,0.065063,131.329407,0.085846,196.994141,0.096863c29.665649,0.004974,59.331421,0.011963,88.996826-0.10199
			c7.179565-0.027557,12.959595,2.25415,17.178345,8.274536c4.684326,6.684662,9.563843,13.232147,14.330322,19.859436
			c4.382568,6.093475,10.012939,9.065979,17.804565,9.06073c171.162354-0.115234,342.324707-0.077209,513.487061-0.143005
			c4.815308-0.001831,8.972656,0.608765,11.424194,5.30957c0,2,0,4,0,6c-2.446655,4.70929-6.609253,5.310791-11.421997,5.30896
			c-169.971924-0.065186-339.943848-0.05426-509.915649-0.055542c-4.164551-0.000061-8.345581,0.214966-12.489746-0.07959
			c-6.718018-0.477478-12.014404-3.401855-15.393555-9.544495c-4.734741-8.607391-9.918213-16.975891-14.435425-25.692474
			c-3.252441-6.276367-8.048584-8.74649-14.897827-8.727142c-34.827393,0.09845-69.655151,0.044922-104.482666,0.044861
			c-56.823975-0.000092-113.648254,0.092346-170.471497-0.102722c-8.221313-0.028229-13.880005,2.417755-17.622437,10.139679
			c-4.058044,8.37326-9.177917,16.226501-13.680298,24.391693c-3.385803,6.140503-8.706421,9.023682-15.423828,9.496033
			c-3.978821,0.279785-7.992249,0.074158-11.990112,0.074219c-92.151428,0.001404-184.303528,0.190613-276.453857-0.13324
			c-22.806702-0.0802-43.573853,5.322876-63.389069,16.55603c-26.075134,14.78186-52.680176,28.629822-79.075653,42.845459
			c-18.889496,10.173157-39.21283,14.700378-60.533142,14.6203c-46.133484-0.173279-92.265915-0.616943-138.399338-0.82666
			C195.457123,602.295044,192.178207,600.885498,190,597C190,592,190,587,190,582z"/>
	</g>
</g>
</svg>
