<?xml version="1.0" encoding="utf-8"?>
<!-- Generator: Adobe Illustrator 26.0.3, SVG Export Plug-In . SVG Version: 6.00 Build 0)  -->
<svg version="1.1" id="Слой_1" xmlns="http://www.w3.org/2000/svg" xmlns:xlink="http://www.w3.org/1999/xlink" x="0px" y="0px"
	 viewBox="0 0 324.510651 132" style="enable-background:new 0 0 324.510651 132;" xml:space="preserve">
<style type="text/css">
	.st0{fill:#FFFFFF;}
</style>
<g>
	<g>
		<path class="st0" d="M69.446808,37.643944c0-2.334835,0-4.66967,0-7.005077c213.631561-0.000568,427.263123-0.000568,641-0.000568
			c0,43.956741,0,87.914963,0,132c-213.596466,0-427.298248,0-641,0c0-38.936508,0-77.961548,0-116.986588
			c16.026154,1.996239,32.050049,4.010792,48.078873,5.985298c48.911438,6.025135,97.818161,12.090256,146.747299,17.968113
			c5.10672,0.613472,7.408386,2.853729,7.679596,7.856674c0.387848,7.15448,0.936096,14.302391,1.544098,21.442169
			c0.589783,6.92598,3.107117,9.795715,9.941681,11.193336c3.086121,0.631096,6.265686,0.802818,9.402008,1.190033
			c28.581909,3.528816,57.161896,7.073082,85.74585,10.58551c33.706512,4.141891,67.417847,8.244736,101.124359,12.386566
			c31.558014,3.877823,63.112671,7.783173,94.668518,11.678848c31.225281,3.854874,62.44989,7.714996,93.675232,11.568298
			c11.896118,1.468002,23.783569,3.014847,35.69519,4.344223c5.527832,0.616928,7.163818-1.794617,4.531494-6.682266
			c-2.881165-5.349854-6.980469-9.207993-13.47113-9.926712c-9.76532-1.081345-19.504395-2.397842-29.25647-3.599884
			c-42.150757-5.195587-84.301453-10.390884-126.453308-15.576797c-44.631622-5.49099-89.265839-10.960396-133.896393-16.459518
			c-37.191956-4.582573-74.375397-9.235008-111.576019-13.745689c-5.039246-0.611031-7.820465-3.317932-9.014191-7.954498
			c-1.369385-5.318878-2.506836-10.697983-3.899994-16.010223c-1.814514-6.91893-4.045807-8.638233-11.017426-9.405819
			c-9.599365-1.056911-19.184479-2.246922-28.77005-3.425858c-42.145538-5.183506-84.292053-10.359016-126.431625-15.590702
			C99.468933,41.607368,84.462128,39.59127,69.446808,37.643944z"/>
		<path d="M69.446808,37.643944c15.01532,1.947327,30.022125,3.963425,45.047592,5.828857
			c42.139572,5.231686,84.286087,10.407196,126.431625,15.590702c9.585571,1.178936,19.170685,2.368946,28.77005,3.425858
			c6.971619,0.767586,9.202911,2.486889,11.017426,9.405819c1.393158,5.312241,2.530609,10.691345,3.899994,16.010223
			c1.193726,4.636566,3.974945,7.343468,9.014191,7.954498c37.200623,4.510681,74.384064,9.163116,111.576019,13.745689
			c44.630554,5.499123,89.264771,10.968529,133.896393,16.459518c42.151855,5.185913,84.302551,10.38121,126.453308,15.576797
			c9.752075,1.202042,19.49115,2.518539,29.25647,3.599884c6.490662,0.718719,10.589966,4.576859,13.47113,9.926712
			c2.632324,4.88765,0.996338,7.299194-4.531494,6.682266c-11.911621-1.329376-23.799072-2.876221-35.69519-4.344223
			c-31.225342-3.853302-62.449951-7.713425-93.675232-11.568298c-31.555847-3.895676-63.110504-7.801025-94.668518-11.678848
			c-33.706512-4.14183-67.417847-8.244675-101.124359-12.386566c-28.583954-3.512428-57.16394-7.056694-85.74585-10.58551
			c-3.136322-0.387215-6.315887-0.558937-9.402008-1.190033c-6.834564-1.397621-9.351898-4.267357-9.941681-11.193336
			c-0.608002-7.139778-1.15625-14.287689-1.544098-21.442169c-0.27121-5.002945-2.572876-7.243202-7.679596-7.856674
			c-48.929138-5.877857-97.835861-11.942978-146.747299-17.968113c-16.028824-1.974506-32.052719-3.989059-48.078873-5.985298
			C69.446808,42.982449,69.446808,40.313194,69.446808,37.643944z"/>
	</g>
</g>
</svg>
