<?xml version="1.0" encoding="utf-8"?>
<!-- Generator: Adobe Illustrator 26.0.3, SVG Export Plug-In . SVG Version: 6.00 Build 0)  -->
<svg version="1.1" id="Слой_1" xmlns="http://www.w3.org/2000/svg" xmlns:xlink="http://www.w3.org/1999/xlink" x="0px" y="0px"
	 viewBox="0 0 600 600" style="enable-background:new 0 0 600 600;" xml:space="preserve">
<style type="text/css">
	.st0{fill:#FFFFFF;}
</style>
<g>
	<g>
		<path fill="#ffffff" d="M574.968994,330.466949c0,3.160736,0,6.050995,0,9.179718c-0.688232,0-1.317017,0-1.945862,0
			c-10.686707,0-21.373474-0.011658-32.060181,0.005463c-4.570251,0.007324-8.312683-1.326385-11.726562-4.762817
			c-28.81015-28.999786-57.785553-57.835815-86.709839-86.722458c-0.629486-0.628662-1.26416-1.254379-1.859497-1.914581
			c-2.992126-3.318024-6.534271-4.567291-11.165283-4.544479c-37.758911,0.18605-75.519196,0.151657-113.278839,0.074829
			c-10.710876-0.02179-9.544952,0.145905-16.60495,6.351334c-15.597107,13.709122-31.17804,27.436722-46.71814,41.21022
			c-2.867065,2.541168-6.220413,3.328644-9.85675,3.331421c-26.123138,0.019928-52.246933,0.107086-78.368881-0.068329
			c-5.408615-0.036316-10.20282,1.148926-14.966354,3.602722c-18.599091,9.58078-37.324661,18.916595-55.924751,28.495453
			c-4.246544,2.18692-8.610077,3.205719-13.310356,3.203796c-19.59235-0.008148-39.184708,0.000214-58.777058-0.007141
			c-2.460072-0.000946-4.078812-1.388611-4.119926-3.459656c-0.042231-2.127258,1.622845-3.576141,4.18586-3.576965
			c20.007931-0.006348,40.015865-0.008881,60.023785,0.004913c3.018288,0.002106,5.875824-0.59549,8.607292-1.891571
			c19.751663-9.372223,39.526047-18.696899,59.253235-28.120178c3.878021-1.852478,7.790222-2.80188,12.138962-2.78363
			c27.725662,0.116455,55.452118,0.0336,83.178024,0.114136c3.700256,0.010742,6.289322-1.964935,8.790497-4.110504
			c16.795898-14.40802,33.557648-28.85611,50.257202-43.375229c1.997681-1.736801,4.121735-2.388855,6.638275-2.385513
			c11.992859,0.015915,23.985779,0.007034,35.978668,0.007034c28.082367-0.000015,56.164734,0.013458,84.247131-0.0168
			c3.560303-0.003845,6.452698,1.097473,9.109924,3.60614c30.156067,28.46991,60.390564,56.856964,90.59552,85.275238
			c2.907715,2.735687,6.551025,3.219391,10.249329,3.248596c10.686035,0.084351,21.37323,0.029205,32.059998,0.028839
			C573.530701,330.466919,574.171997,330.466949,574.968994,330.466949z"/>
		<path fill="#ffffff" d="M17.648403,326.857971c1.146986,1.846619,2.726961,2.217987,4.630672,2.212677
			c19.890144-0.055481,39.780472-0.045563,59.670738-0.067566c3.917084-0.004303,7.552376-0.967896,11.080109-2.771942
			c19.631706-10.039398,39.324493-19.959656,58.979385-29.953949c3.291-1.673431,6.676514-2.504944,10.414597-2.494324
			c26.777664,0.076172,53.555695,0.026733,80.333557,0.054993c4.274292,0.004486,7.871353-1.233582,11.155991-4.162415
			c16.606537-14.807739,33.350616-29.461609,50.03067-44.187271c1.820465-1.607147,3.924194-2.402573,6.303833-2.492401
			c1.896881-0.071625,3.797882-0.044403,5.697052-0.044525c38.949646-0.002594,77.899384-0.02121,116.848816,0.065201
			c1.525543,0.003387,3.242981,0.735657,4.526672,1.624313c1.833099,1.268997,3.398224,2.94635,4.991058,4.535873
			c29.063232,29.00238,58.155853,57.975708,87.107147,87.089172c3.227173,3.245361,6.796631,4.514648,11.108765,4.51651
			c10.984253,0.004791,21.968567-0.002411,32.95282,0.011108c0.73645,0.000885,1.860413-0.348297,1.401428,1.343567
			c-0.589478,0-1.229004,0-1.86853,0c-10.687439-0.000031-21.374817-0.012268-32.062256,0.005707
			c-4.572815,0.007721-8.311523-1.338226-11.72345-4.772461c-28.77005-28.958832-57.704742-57.754547-86.588531-86.600693
			c-0.671509-0.670639-1.351074-1.335785-1.985291-2.040741c-2.992554-3.326401-6.547607-4.551895-11.171844-4.529404
			c-37.761292,0.183685-75.523926,0.15097-113.28598,0.073135c-10.692322-0.022049-9.529449,0.157288-16.598846,6.37056
			c-15.553955,13.670319-31.094604,27.355988-46.584351,41.098694c-2.863098,2.540161-6.182617,3.41861-9.824341,3.421967
			c-26.184128,0.023926-52.368942,0.109985-78.551895-0.066895c-5.412399-0.03656-10.203644,1.170929-14.96286,3.621429
			c-18.550705,9.551605-37.226295,18.861481-55.771828,28.422974c-4.358063,2.246887-8.836014,3.262756-13.655479,3.259979
			c-19.474834-0.01123-38.949673-0.002075-58.424507-0.007446C19.194143,330.393066,18.042444,329.450439,17.648403,326.857971z"/>
	</g>
</g>
</svg>
